<?xml version="1.0" encoding="UTF-8"?>
<svg id="SVGDoc" width="955" height="8" xmlns="http://www.w3.org/2000/svg" version="1.1" xmlns:xlink="http://www.w3.org/1999/xlink" xmlns:avocode="https://avocode.com/" viewBox="0 0 955 8"><defs></defs><desc>Generated with Avocode.</desc><g><g><title>Еліпс 635</title><path d="M272.00004,0.00007c2.20905,0 3.99994,1.79069 3.99994,3.99987c0,2.20918 -1.79089,3.99987 -3.99994,3.99987c-2.20917,0 -4.00005,-1.79069 -4.00005,-3.99987c0,-2.20918 1.79089,-3.99987 4.00005,-3.99987z" fill="#939cba" fill-opacity="1"></path></g><g opacity="0.67"><title>Еліпс 635 копія</title><path d="M183.00002,0.00007c2.20917,0 3.99994,1.79069 3.99994,3.99987c0,2.20918 -1.79077,3.99987 -3.99994,3.99987c-2.20917,0 -4.00005,-1.79069 -4.00005,-3.99987c0,-2.20918 1.79089,-3.99987 4.00005,-3.99987z" fill="#939cba" fill-opacity="1"></path></g><g opacity="0.36"><title>Еліпс 635 копія 2</title><path d="M93.00002,0.00007c2.20917,0 3.99994,1.79069 3.99994,3.99987c0,2.20918 -1.79077,3.99987 -3.99994,3.99987c-2.20917,0 -4.00005,-1.79069 -4.00005,-3.99987c0,-2.20918 1.79089,-3.99987 4.00005,-3.99987z" fill="#939cba" fill-opacity="1"></path></g><g opacity="0.12"><title>Еліпс 635 копія 3</title><path d="M4.00001,0.00007c2.20917,0 3.99994,1.79069 3.99994,3.99987c0,2.20918 -1.79077,3.99987 -3.99994,3.99987c-2.20917,0 -4.00005,-1.79069 -4.00005,-3.99987c0,-2.20918 1.79089,-3.99987 4.00005,-3.99987z" fill="#939cba" fill-opacity="1"></path></g><g><title>Еліпс 635</title><path d="M682.99995,0.00007c2.20917,0 4.00005,1.79069 4.00005,3.99987c0,2.20918 -1.79089,3.99987 -4.00005,3.99987c-2.20905,0 -3.99994,-1.79069 -3.99994,-3.99987c0,-2.20918 1.79089,-3.99987 3.99994,-3.99987z" fill="#939cba" fill-opacity="1"></path></g><g opacity="0.67"><title>Еліпс 635 копія</title><path d="M771.99996,0.00007c2.20917,0 4.00005,1.79069 4.00005,3.99987c0,2.20918 -1.79089,3.99987 -4.00005,3.99987c-2.20905,0 -3.99994,-1.79069 -3.99994,-3.99987c0,-2.20918 1.79089,-3.99987 3.99994,-3.99987z" fill="#939cba" fill-opacity="1"></path></g><g opacity="0.36"><title>Еліпс 635 копія 2</title><path d="M861.99996,0.00007c2.20917,0 4.00005,1.79069 4.00005,3.99987c0,2.20918 -1.79089,3.99987 -4.00005,3.99987c-2.20905,0 -3.99994,-1.79069 -3.99994,-3.99987c0,-2.20918 1.79089,-3.99987 3.99994,-3.99987z" fill="#939cba" fill-opacity="1"></path></g><g opacity="0.12"><title>Еліпс 635 копія 3</title><path d="M950.99998,0.00007c2.20917,0 4.00005,1.79069 4.00005,3.99987c0,2.20918 -1.79089,3.99987 -4.00005,3.99987c-2.20917,0 -3.99994,-1.79069 -3.99994,-3.99987c0,-2.20918 1.79077,-3.99987 3.99994,-3.99987z" fill="#939cba" fill-opacity="1"></path></g></g></svg>